<svg xmlns="http://www.w3.org/2000/svg" version="1.1" xmlns:xlink="http://www.w3.org/1999/xlink" xmlns:svgjs="http://svgjs.dev/svgjs" width="1000" height="1000" viewBox="0 0 1000 1000"><rect width="1000" height="1000" fill="#010536"></rect><g transform="matrix(0.7,0,0,0.7,149.95959406733618,277.58024291497975)"><svg viewBox="0 0 388 247" data-background-color="#010536" preserveAspectRatio="xMidYMid meet" height="636" width="1000" xmlns="http://www.w3.org/2000/svg" xmlns:xlink="http://www.w3.org/1999/xlink"><defs></defs><g id="tight-bounds" transform="matrix(1,0,0,1,0.022396431247955206,-0.09999999999999432)"><svg viewBox="0 0 387.955207137504 247.2" height="247.2" width="387.955207137504"><g><svg viewBox="0 0 395.5199999999999 252.0201873855664" height="247.2" width="387.955207137504"><g transform="matrix(1,0,0,1,0,151.91885006451938)"><svg viewBox="0 0 395.5199999999999 100.10133732104703" height="100.10133732104703" width="395.5199999999999"><g><svg viewBox="0 0 395.5199999999999 100.10133732104703" height="100.10133732104703" width="395.5199999999999"><g><svg viewBox="0 0 395.5199999999999 57.51877313590691" height="57.51877313590691" width="395.5199999999999"><g transform="matrix(1,0,0,1,0,0)"><svg width="395.5199999999999" viewBox="2.2 -33.5 283.63 41.25" height="57.51877313590691" data-palette-color="#fbfbf8"><path d="M17.9 0L2.2 0 2.2-0.8 6.45-2.85 6.45-30.15 2.2-32.2 2.2-33 17.9-33 17.9-32.2 14-30.15 14-18.35 27.85-18.35 27.85-30.15 23.85-32.2 23.85-33 39.6-33 39.6-32.2 35.4-30.15 35.4-2.85 39.6-0.8 39.6 0 23.85 0 23.85-0.8 27.85-2.85 27.85-15.6 14-15.6 14-2.85 17.9-0.8 17.9 0ZM53.6 0L42.75 0 42.75-0.8 45.8-2.5 58.85-33.25 63.25-33.25 76.15-2.6 79.55-0.8 79.55 0 63.75 0 63.75-0.8 68.1-2.6 64.7-10.9 52.85-10.9 49.45-2.6 53.6-0.8 53.6 0ZM58.8-25.3L54-13.65 63.55-13.65 58.8-25.3ZM99.9 0L82.7 0 82.7-0.8 86.95-2.85 86.95-30.15 82.7-32.2 82.7-33 98.7-33Q102.3-33 105.12-32.18 107.95-31.35 109.57-29.73 111.2-28.1 111.2-25.6L111.2-25.6Q111.2-23.05 109.27-20.9 107.34-18.75 103.75-17.9L103.75-17.9Q108.59-17.25 111.37-15.08 114.15-12.9 114.15-9.6L114.15-9.6Q114.15-6.85 112.3-4.67 110.45-2.5 107.22-1.25 104 0 99.9 0L99.9 0ZM96.2-30.25L96.2-30.25 94.5-30.25 94.5-18.25 96.5-18.25Q99.8-18.25 101.65-19.83 103.5-21.4 103.5-24.1L103.5-24.1Q103.5-30.25 96.2-30.25ZM97.95-15.8L97.95-15.8 94.5-15.8 94.5-2.75 98.3-2.75Q102-2.75 104.07-4.6 106.15-6.45 106.15-9.35L106.15-9.35Q106.15-12.65 104.02-14.23 101.9-15.8 97.95-15.8ZM134.14 0L118.09 0 118.09-0.8 122.34-2.85 122.34-30.15 118.09-32.2 118.09-33 134.14-33 134.14-32.2 129.89-30.15 129.89-2.85 134.14-0.8 134.14 0ZM163.04 0L144.89 0 144.89-0.8 150.19-2.85 150.19-30.25 143.04-30.25 139.04-22 138.24-22 138.24-33 169.69-33 169.69-22 168.89-22 164.89-30.25 157.74-30.25 157.74-2.85 163.04-0.8 163.04 0ZM183.29 0L172.44 0 172.44-0.8 175.49-2.5 188.54-33.25 192.94-33.25 205.84-2.6 209.24-0.8 209.24 0 193.44 0 193.44-0.8 197.79-2.6 194.39-10.9 182.54-10.9 179.14-2.6 183.29-0.8 183.29 0ZM188.49-25.3L183.69-13.65 193.24-13.65 188.49-25.3ZM236.79 0L218.64 0 218.64-0.8 223.94-2.85 223.94-30.25 216.79-30.25 212.79-22 211.99-22 211.99-33 243.44-33 243.44-22 242.64-22 238.64-30.25 231.49-30.25 231.49-2.85 236.79-0.8 236.79 0ZM279.53 7.75L279.53 7.75Q277.18 7.75 274.68 7.13 272.18 6.5 269.16 4.9 266.13 3.3 262.33 0.35L262.33 0.35Q258.08-0.25 254.76-2.55 251.43-4.85 249.56-8.45 247.68-12.05 247.68-16.5L247.68-16.5Q247.68-20.2 248.98-23.3 250.28-26.4 252.61-28.68 254.93-30.95 258.08-32.23 261.23-33.5 264.93-33.5L264.93-33.5Q268.68-33.5 271.83-32.23 274.98-30.95 277.31-28.68 279.63-26.4 280.93-23.3 282.23-20.2 282.23-16.5L282.23-16.5Q282.23-12.6 280.78-9.35 279.33-6.1 276.73-3.78 274.13-1.45 270.68-0.35L270.68-0.35Q274.83 3.15 277.58 4.42 280.33 5.7 282.53 5.7L282.53 5.7Q283.63 5.7 284.46 5.55 285.28 5.4 285.83 5.25L285.83 5.25 285.83 6.4Q284.73 6.95 283.18 7.35 281.63 7.75 279.53 7.75ZM265.73-2.1L265.73-2.1Q268.23-2.1 270.16-3.7 272.08-5.3 273.16-8.2 274.23-11.1 274.23-15L274.23-15Q274.23-19.8 272.91-23.4 271.58-27 269.33-28.98 267.08-30.95 264.28-30.95L264.28-30.95Q261.78-30.95 259.83-29.38 257.88-27.8 256.76-24.9 255.63-22 255.63-18.1L255.63-18.1Q255.63-13.3 256.98-9.7 258.33-6.1 260.63-4.1 262.93-2.1 265.73-2.1Z" opacity="1" transform="matrix(1,0,0,1,0,0)" fill="#fbfbf8" class="undefined-text-0" data-fill-palette-color="primary" id="text-0"></path></svg></g></svg></g><g transform="matrix(1,0,0,1,0,71.09757502273928)"><svg viewBox="0 0 395.5199999999999 29.00376229830775" height="29.00376229830775" width="395.5199999999999"><g transform="matrix(1,0,0,1,0,0)"><svg width="395.5199999999999" viewBox="0.95 -38.35 762.2299999999999 55.900000000000006" height="29.00376229830775" data-palette-color="#fbfbf8"><path d="M26.05-36L35.05-36 28.75 0 19.7 0 22-13 12.25-13 10 0 0.95 0 7.3-36 16.3-36 13.6-20.8 23.35-20.8 26.05-36ZM59.4-7.7L59.4-7.7Q59.4-6.4 60.72-6.4 62.05-6.4 62.95-6.9L62.95-6.9 62.7-1.25Q60.3 0.7 57.3 0.7L57.3 0.7Q51.8 0.7 51.2-3.3L51.2-3.3Q48.7 0.7 43.85 0.7L43.85 0.7Q35.65 0.7 35.65-6.35L35.65-6.35Q35.65-7.55 35.9-9L35.9-9 36.95-14.85Q37.75-19.35 40.62-22.03 43.5-24.7 48.12-24.7 52.75-24.7 54.4-22.55L54.4-22.55 54.65-24.05 62.25-24.05 59.45-8.3Q59.4-8 59.4-7.7ZM45.25-13.85L44.6-10.1Q44.5-9.65 44.5-8.85 44.5-8.05 45.25-7.28 46-6.5 47.77-6.5 49.55-6.5 50.85-7.9L50.85-7.9 52.35-16.3Q51.8-17.55 49.75-17.55L49.75-17.55Q45.9-17.55 45.25-13.85L45.25-13.85ZM83.2-24.75L83.2-24.75Q88.15-24.75 90.15-22L90.15-22Q91.65-20.05 91.65-17.25L91.65-17.25Q91.65-16.1 91.4-14.85L91.4-14.85 90.4-9.25Q89.55-4.45 85.97-1.88 82.4 0.7 76.97 0.7 71.55 0.7 68.65-1.45L68.65-1.45Q66.35-3.15 66.35-6.2L66.35-6.2Q66.35-7 66.5-7.85L66.5-7.85 71.8-37.95 80.3-37.95 77.75-23.4Q79.85-24.75 83.2-24.75ZM82.1-10.35L82.75-14.1Q82.8-14.5 82.8-15.23 82.8-15.95 82.17-16.78 81.55-17.6 79.47-17.6 77.4-17.6 76.5-16.35L76.5-16.35 75.05-8Q75.65-6.5 77.55-6.5L77.55-6.5Q81.4-6.5 82.1-10.35L82.1-10.35ZM105.09-6.4L105.09-6.4Q106.24-6.4 107.14-6.9L107.14-6.9 106.89-1.25Q104.54 0.7 101.54 0.7L101.54 0.7Q96.99 0.7 95.64-1.4L95.64-1.4Q94.74-2.8 94.74-4.38 94.74-5.95 94.94-7.15L94.94-7.15 97.94-24.05 106.44-24.05 103.64-8.3Q103.59-8 103.59-7.75L103.59-7.75Q103.59-6.4 105.09-6.4ZM98.94-32.2L98.94-32.2Q98.94-35.4 100.37-36.88 101.79-38.35 104.79-38.35L104.79-38.35Q108.99-38.35 108.99-34.65L108.99-34.65Q108.99-31.5 107.57-30.05 106.14-28.6 103.09-28.6L103.09-28.6Q98.94-28.6 98.94-32.2ZM120.89 0.7L120.89 0.7Q115.09 0.7 112.54-1.9L112.54-1.9Q110.64-3.8 110.64-7L110.64-7Q110.64-8.05 110.84-9.25L110.84-9.25 114.24-28.6 123.39-32.4 121.94-24.05 135.74-24.05 134.49-17 120.69-17 119.69-11.35Q119.49-10.4 119.49-9.65L119.49-9.65Q119.49-6.5 122.49-6.5L122.49-6.5Q124.09-6.5 125.17-7.85 126.24-9.2 126.64-11.45L126.64-11.45 134.94-11.45Q132.84 0.7 120.89 0.7ZM161.09-7.7L161.09-7.7Q161.09-6.4 162.41-6.4 163.74-6.4 164.64-6.9L164.64-6.9 164.39-1.25Q161.99 0.7 158.99 0.7L158.99 0.7Q153.49 0.7 152.89-3.3L152.89-3.3Q150.39 0.7 145.54 0.7L145.54 0.7Q137.34 0.7 137.34-6.35L137.34-6.35Q137.34-7.55 137.59-9L137.59-9 138.64-14.85Q139.44-19.35 142.31-22.03 145.19-24.7 149.81-24.7 154.44-24.7 156.09-22.55L156.09-22.55 156.34-24.05 163.94-24.05 161.14-8.3Q161.09-8 161.09-7.7ZM146.94-13.85L146.29-10.1Q146.19-9.65 146.19-8.85 146.19-8.05 146.94-7.28 147.69-6.5 149.46-6.5 151.24-6.5 152.54-7.9L152.54-7.9 154.04-16.3Q153.49-17.55 151.44-17.55L151.44-17.55Q147.59-17.55 146.94-13.85L146.94-13.85ZM178.44 0.7L178.44 0.7Q172.64 0.7 170.09-1.9L170.09-1.9Q168.19-3.8 168.19-7L168.19-7Q168.19-8.05 168.39-9.25L168.39-9.25 171.79-28.6 180.94-32.4 179.49-24.05 193.29-24.05 192.04-17 178.24-17 177.24-11.35Q177.04-10.4 177.04-9.65L177.04-9.65Q177.04-6.5 180.04-6.5L180.04-6.5Q181.64-6.5 182.71-7.85 183.79-9.2 184.19-11.45L184.19-11.45 192.49-11.45Q190.39 0.7 178.44 0.7ZM226.53-36.35L226.53-36.35Q238.63-36.35 238.63-26.95L238.63-26.95Q238.63-25.45 238.33-23.7L238.33-23.7 236.28-12.2Q235.28-6.4 232.16-3.28 229.03-0.15 223.43 0.5L223.43 0.5Q223.98 2.3 226.11 3.38 228.23 4.45 231.63 4.45L231.63 4.45 231.38 11.55Q227.58 11.55 224.71 10.7 221.83 9.85 220.26 8.63 218.68 7.4 217.68 5.75L217.68 5.75Q216.18 3.2 216.08 0.4L216.08 0.4Q207.83-0.85 207.83-8.65L207.83-8.65Q207.83-10.3 208.18-12.2L208.18-12.2 210.23-23.7Q212.48-36.35 226.53-36.35ZM221.33-7.05L221.33-7.05Q223.83-7.05 225.33-8.3 226.83-9.55 227.43-12.9L227.43-12.9 229.23-23Q229.38-23.95 229.38-24.7L229.38-24.7Q229.38-28.6 225.18-28.6L225.18-28.6Q220.03-28.5 219.08-23L219.08-23 217.33-12.9Q217.13-11.7 217.13-10.4L217.13-10.4Q217.13-7.05 221.33-7.05ZM264.63-7.7L264.63-7.7Q264.63-6.4 265.95-6.4 267.28-6.4 268.18-6.9L268.18-6.9 267.93-1.25Q265.53 0.7 262.53 0.7L262.53 0.7Q256.88 0.7 256.38-3.65L256.38-3.65Q253.38 0.7 248.3 0.7 243.23 0.7 241.73-1.6L241.73-1.6Q240.73-3.05 240.73-4.9 240.73-6.75 241.03-8.3L241.03-8.3 243.83-24.05 252.33-24.05 249.98-10.75Q249.83-9.85 249.83-8.95L249.83-8.95Q249.83-6.55 252.53-6.55L252.53-6.55Q254.78-6.55 256.13-8.1L256.13-8.1 258.98-24.05 267.48-24.05 264.68-8.3Q264.63-8 264.63-7.7ZM294.73-7.7L294.73-7.7Q294.73-6.4 296.05-6.4 297.38-6.4 298.28-6.9L298.28-6.9 298.03-1.25Q295.63 0.7 292.63 0.7L292.63 0.7Q287.13 0.7 286.53-3.3L286.53-3.3Q284.03 0.7 279.18 0.7L279.18 0.7Q270.98 0.7 270.98-6.35L270.98-6.35Q270.98-7.55 271.23-9L271.23-9 272.28-14.85Q273.07-19.35 275.95-22.03 278.82-24.7 283.45-24.7 288.07-24.7 289.73-22.55L289.73-22.55 289.98-24.05 297.57-24.05 294.78-8.3Q294.73-8 294.73-7.7ZM280.57-13.85L279.93-10.1Q279.82-9.65 279.82-8.85 279.82-8.05 280.57-7.28 281.32-6.5 283.1-6.5 284.88-6.5 286.18-7.9L286.18-7.9 287.68-16.3Q287.13-17.55 285.07-17.55L285.07-17.55Q281.23-17.55 280.57-13.85L280.57-13.85ZM310.67-7.7L310.67-7.7Q310.67-6.4 312-6.4 313.32-6.4 314.22-6.9L314.22-6.9 313.97-1.25Q311.57 0.7 308.57 0.7L308.57 0.7Q304.02 0.7 302.67-1.4L302.67-1.4Q301.82-2.75 301.82-4.35 301.82-5.95 302.02-7.15L302.02-7.15 307.47-37.95 315.97-37.95 310.72-8.3Q310.67-8 310.67-7.7ZM327.87-6.4L327.87-6.4Q329.02-6.4 329.92-6.9L329.92-6.9 329.67-1.25Q327.32 0.7 324.32 0.7L324.32 0.7Q319.77 0.7 318.42-1.4L318.42-1.4Q317.52-2.8 317.52-4.38 317.52-5.95 317.72-7.15L317.72-7.15 320.72-24.05 329.22-24.05 326.42-8.3Q326.37-8 326.37-7.75L326.37-7.75Q326.37-6.4 327.87-6.4ZM321.72-32.2L321.72-32.2Q321.72-35.4 323.15-36.88 324.57-38.35 327.57-38.35L327.57-38.35Q331.77-38.35 331.77-34.65L331.77-34.65Q331.77-31.5 330.35-30.05 328.92-28.6 325.87-28.6L325.87-28.6Q321.72-28.6 321.72-32.2ZM343.67 0.7L343.67 0.7Q337.87 0.7 335.32-1.9L335.32-1.9Q333.42-3.8 333.42-7L333.42-7Q333.42-8.05 333.62-9.25L333.62-9.25 337.02-28.6 346.17-32.4 344.72-24.05 358.52-24.05 357.27-17 343.47-17 342.47-11.35Q342.27-10.4 342.27-9.65L342.27-9.65Q342.27-6.5 345.27-6.5L345.27-6.5Q346.87-6.5 347.94-7.85 349.02-9.2 349.42-11.45L349.42-11.45 357.72-11.45Q355.62 0.7 343.67 0.7ZM372.31-24.05L369.96-10.75Q369.81-9.85 369.81-8.95L369.81-8.95Q369.81-6.55 372.51-6.55L372.51-6.55Q374.71-6.55 376.17-8.1L376.17-8.1 378.96-24.05 387.46-24.05 383.06 0.8Q381.96 7.15 378.04 10.85 374.12 14.55 369.06 14.55 364.01 14.55 361.79 12.7 359.56 10.85 359.56 7.85L359.56 7.85Q359.56 3.6 364.81 0.3L364.81 0.3Q361.96-0.4 361.21-2.55L361.21-2.55Q360.76-3.75 360.76-5.25 360.76-6.75 361.01-8.3L361.01-8.3 363.81-24.05 372.31-24.05ZM370.21 7.4L370.21 7.4Q373.46 7.4 374.46 1.5L374.46 1.5 374.96-1.4Q368.01 1.85 368.01 5.15L368.01 5.15Q368.01 6.15 368.59 6.78 369.17 7.4 370.21 7.4ZM407.11-36L416.51-36 421.86-18.75 433.36-36 442.81-36 436.46 0 427.41 0 431.01-20.3 423.31-8.2 416.76-8.2 413.36-20.3 409.76 0 400.76 0 407.11-36ZM458.66-24.75L458.66-24.75Q464.06-24.75 466.81-22.4L466.81-22.4Q468.96-20.55 468.96-17.25L468.96-17.25Q468.96-16.15 468.71-14.85L468.71-14.85 467.66-9Q466.71-3.7 463.23-1.5 459.76 0.7 453.96 0.7 448.16 0.7 445.46-1.5L445.46-1.5Q443.46-3.15 443.46-6.45L443.46-6.45Q443.46-7.6 443.71-9L443.71-9 444.76-14.85Q446.51-24.75 458.66-24.75ZM459.36-10.1L460.01-13.85Q460.11-14.35 460.11-15.13 460.11-15.9 459.46-16.85 458.81-17.8 457.18-17.8 455.56-17.8 454.46-16.73 453.36-15.65 453.06-13.85L453.06-13.85 452.41-10.1Q452.31-9.6 452.31-8.83 452.31-8.05 452.96-7.15 453.61-6.25 455.23-6.25 456.86-6.25 457.96-7.38 459.06-8.5 459.36-10.1L459.36-10.1ZM495.36-7.7L495.36-7.7Q495.36-6.4 496.68-6.4 498-6.4 498.91-6.9L498.91-6.9 498.66-1.25Q496.25 0.7 493.25 0.7L493.25 0.7Q487.75 0.7 487.16-3.3L487.16-3.3Q484.66 0.7 479.81 0.7L479.81 0.7Q471.61 0.7 471.61-6.35L471.61-6.35Q471.61-7.55 471.86-9L471.86-9 472.91-14.85Q473.7-19.35 476.58-22.03 479.45-24.7 484.56-24.7L484.56-24.7Q487.7-24.7 489.56-23.35L489.56-23.35 492.11-37.95 500.66-37.95 495.41-8.3Q495.36-8 495.36-7.7ZM481.2-13.85L480.56-10.1Q480.45-9.65 480.45-8.85 480.45-8.05 481.2-7.28 481.95-6.5 483.73-6.5 485.5-6.5 486.81-7.9L486.81-7.9 488.31-16.3Q487.75-17.55 485.7-17.55L485.7-17.55Q481.86-17.55 481.2-13.85L481.2-13.85ZM513.05 0.7L513.05 0.7Q502.65 0.7 502.65-6.5L502.65-6.5Q502.65-7.5 502.85-8.65L502.85-8.65 503.9-14.85Q504.75-19.65 508.33-22.23 511.9-24.8 517.8-24.8L517.8-24.8Q527.85-24.8 527.85-17.2L527.85-17.2Q527.85-16.1 527.65-14.8L527.65-14.8 527.05-11.25 511.8-11.25 511.6-10.1Q511.5-9.5 511.5-9L511.5-9Q511.5-6.25 514.75-6.25L514.75-6.25Q515.95-6.25 516.8-7 517.65-7.75 517.8-8.75L517.8-8.75 526.1-8.65Q524.45 0.7 513.05 0.7ZM512.3-14.3L519.05-14.3Q519.25-15.15 519.25-15.88 519.25-16.6 518.6-17.35 517.95-18.1 516.53-18.1 515.1-18.1 513.93-17.15 512.75-16.2 512.3-14.3L512.3-14.3ZM539.85-7.7L539.85-7.7Q539.85-6.4 541.17-6.4 542.5-6.4 543.4-6.9L543.4-6.9 543.15-1.25Q540.75 0.7 537.75 0.7L537.75 0.7Q533.2 0.7 531.85-1.4L531.85-1.4Q531-2.75 531-4.35 531-5.95 531.2-7.15L531.2-7.15 536.65-37.95 545.15-37.95 539.9-8.3Q539.85-8 539.85-7.7ZM580.19 0.9L580.19 0.9Q580.19 8.2 576.47 12.88 572.74 17.55 566.37 17.55 559.99 17.55 557.89 14.4L557.89 14.4Q556.59 12.4 556.59 9.53 556.59 6.65 557.09 3.8L557.09 3.8 563.49-32.4 571.99-32.4 570.49-24.05 582.94-24.05 581.69-17 571.89-17Q575.44-14.15 577.82-9.6 580.19-5.05 580.19 0.9ZM567.64 10.4Q569.19 10.4 570.29 7.9 571.39 5.4 571.39 1.33 571.39-2.75 570.57-6.9 569.74-11.05 568.59-13.4L568.59-13.4 565.59 3.75Q565.29 5.5 565.29 6.8L565.29 6.8Q565.29 10.4 567.64 10.4L567.64 10.4ZM599.39-24.75L599.39-24.75Q604.79-24.75 607.54-22.4L607.54-22.4Q609.69-20.55 609.69-17.25L609.69-17.25Q609.69-16.15 609.44-14.85L609.44-14.85 608.39-9Q607.44-3.7 603.97-1.5 600.49 0.7 594.69 0.7 588.89 0.7 586.19-1.5L586.19-1.5Q584.19-3.15 584.19-6.45L584.19-6.45Q584.19-7.6 584.44-9L584.44-9 585.49-14.85Q587.24-24.75 599.39-24.75ZM600.09-10.1L600.74-13.85Q600.84-14.35 600.84-15.13 600.84-15.9 600.19-16.85 599.54-17.8 597.92-17.8 596.29-17.8 595.19-16.73 594.09-15.65 593.79-13.85L593.79-13.85 593.14-10.1Q593.04-9.6 593.04-8.83 593.04-8.05 593.69-7.15 594.34-6.25 595.97-6.25 597.59-6.25 598.69-7.38 599.79-8.5 600.09-10.1L600.09-10.1ZM636.89-18.95L636.89-18.95Q636.89-17.25 636.31-15.65 635.74-14.05 635.19-13.3L635.19-13.3 634.64-12.6 627.09-12.6Q628.34-13.75 628.34-15.45L628.34-15.45Q628.34-16.35 627.76-16.93 627.19-17.5 626.19-17.5L626.19-17.5Q624.49-17.5 623.24-15.8L623.24-15.8 620.44 0 611.94 0 616.19-24.05 624.09-24.05 623.49-20.7Q626.34-24.75 630.39-24.75L630.39-24.75Q633.64-24.75 635.26-23.2 636.89-21.65 636.89-18.95ZM669.68-36.35L669.68-36.35Q681.78-36.35 681.78-26.95L681.78-26.95Q681.78-25.45 681.48-23.7L681.48-23.7 679.43-12.2Q678.43-6.4 675.31-3.28 672.18-0.15 666.58 0.5L666.58 0.5Q667.13 2.3 669.26 3.38 671.38 4.45 674.78 4.45L674.78 4.45 674.53 11.55Q670.73 11.55 667.86 10.7 664.98 9.85 663.41 8.63 661.83 7.4 660.83 5.75L660.83 5.75Q659.33 3.2 659.23 0.4L659.23 0.4Q650.98-0.85 650.98-8.65L650.98-8.65Q650.98-10.3 651.33-12.2L651.33-12.2 653.38-23.7Q655.63-36.35 669.68-36.35ZM664.48-7.05L664.48-7.05Q666.98-7.05 668.48-8.3 669.98-9.55 670.58-12.9L670.58-12.9 672.38-23Q672.53-23.95 672.53-24.7L672.53-24.7Q672.53-28.6 668.33-28.6L668.33-28.6Q663.18-28.5 662.23-23L662.23-23 660.48-12.9Q660.28-11.7 660.28-10.4L660.28-10.4Q660.28-7.05 664.48-7.05ZM696.08 0.7L696.08 0.7Q688.98 0.7 686.28-2.6L686.28-2.6Q684.43-4.9 684.43-8.9L684.43-8.9Q684.43-10.75 684.83-12.95L684.83-12.95 686.58-22.95Q688.93-36.35 702.98-36.35L702.98-36.35Q708.78-36.35 711.78-33.88 714.78-31.4 714.78-27.1L714.78-27.1Q714.78-25.35 714.31-23.55 713.83-21.75 713.38-20.85L713.38-20.85 712.88-19.95 704.03-19.95Q705.33-21.75 705.33-24.1L705.33-24.1Q705.33-28.6 701.58-28.6L701.58-28.6Q696.53-28.6 695.53-22.75L695.53-22.75 693.83-13.15Q693.58-11.8 693.58-10.5L693.58-10.5Q693.58-7.05 697.66-7.05 701.73-7.05 702.88-11.15L702.88-11.15 698.78-11.15 699.78-16.7 713.03-16.7 712.23-12.4 711.98-10.95Q709.88 0.7 696.08 0.7ZM722.33-36L731.33-36 725.03 0 715.98 0 722.33-36ZM741.63-10.25L741.63-10.25Q741.63-6.8 746.6-6.8 751.58-6.8 751.58-9.9L751.58-9.9Q751.58-11.55 749.88-12.6 748.18-13.65 745.75-14.35 743.33-15.05 740.9-15.98 738.48-16.9 736.78-18.88 735.08-20.85 735.08-23.8L735.08-23.8Q735.08-36.35 751.23-36.35L751.23-36.35Q757.13-36.35 760.15-34.13 763.18-31.9 763.18-27.95L763.18-27.95Q763.18-26.5 762.8-25.18 762.43-23.85 762.03-23.3L762.03-23.3 761.63-22.7 752.78-22.7Q753.88-23.85 753.88-25.6L753.88-25.6Q753.88-28.85 749.63-28.85L749.63-28.85Q744.28-28.85 744.28-25.45L744.28-25.45Q744.28-23.75 745.98-22.75 747.68-21.75 750.1-21.18 752.53-20.6 754.98-19.75 757.43-18.9 759.13-16.93 760.83-14.95 760.83-11.8L760.83-11.8Q760.83-5.45 757.03-2.38 753.23 0.7 745.33 0.7 737.43 0.7 734.53-2.1L734.53-2.1Q732.38-4.2 732.38-7.9L732.38-7.9Q732.38-9.3 732.68-10.95L732.68-10.95 732.83-11.75 741.83-11.75 741.73-11.15Q741.63-10.65 741.63-10.25Z" opacity="1" transform="matrix(1,0,0,1,0,0)" fill="#fbfbf8" class="undefined-text-1" data-fill-palette-color="secondary" id="text-1"></path></svg></g></svg></g></svg></g></svg></g><g transform="matrix(1,0,0,1,134.67339646825383,0)"><svg viewBox="0 0 126.1732070634923 138.340048177687" height="138.340048177687" width="126.1732070634923"><g><svg xmlns="http://www.w3.org/2000/svg" xmlns:xlink="http://www.w3.org/1999/xlink" version="1.1" x="8" y="0" viewBox="18.071 9.805172198865618 64.85899999999998 81.44082780113439" enable-background="new 0 0 100 100" xml:space="preserve" height="138.340048177687" width="110.1732070634923" class="icon-icon-0" data-fill-palette-color="accent" id="icon-0"><path d="M27.952 11.542c-1.899-0.866-9.881 0.117-9.881 0.117l7.916 2.739c0.582 0.267 1.216 0.48 1.866 0.649C28.206 13.304 28.115 12.197 27.952 11.542z" fill="#ffff00" data-fill-palette-color="accent"></path><g fill="#ffff00" data-fill-palette-color="accent"><path d="M25.512 82.699c2.027 0 2.98 0.458 4.084 0.988 1.225 0.588 2.612 1.254 5.255 1.254s4.031-0.666 5.255-1.254c1.105-0.53 2.059-0.988 4.087-0.988 2.029 0 2.983 0.458 4.088 0.988 1.225 0.588 2.613 1.254 5.257 1.254s4.03-0.666 5.255-1.254c1.105-0.53 2.059-0.988 4.087-0.988 2.03 0 2.986 0.458 4.091 0.988 1.225 0.588 2.613 1.254 5.258 1.254s4.032-0.666 5.258-1.254c1.106-0.53 2.062-0.988 4.092-0.988 0.746 0 1.351-0.604 1.351-1.352 0-0.746-0.605-1.351-1.351-1.351-2.646 0-4.034 0.666-5.26 1.254-1.105 0.53-2.061 0.988-4.09 0.988-2.028 0-2.984-0.458-4.09-0.988-1.226-0.588-2.613-1.254-5.259-1.254-2.064 0-3.359 0.407-4.412 0.864l-1.582-5.934 0.189-6.182c7.308 4.02 17.14 5.111 17.14 5.111 2.018 4.631 7.36 4.631 7.36 4.631-0.524-1.682-1.267-3.271-2.127-4.745-0.421-0.843-1.134-1.88-2.039-3.033-0.7-0.924-1.425-1.776-2.142-2.558-3.158-3.579-7.354-7.7-10.674-10.851-1.857-1.93-3.683-3.593-5.418-5.017 0-0.001-0.006-0.005-0.006-0.005-7.406-6.077-13.207-7.862-13.207-7.862-4.229-2.333-5.564-7.618-6.228-12.038-0.246-1.632-0.234-3.315 0.049-4.939 0.271-1.561 0.656-3.081 0.662-4.676 0.009-2.659-0.643-5.434-1.502-7.942-0.172-0.498-0.445-0.997-0.579-1.506-1.484-5.638-7.579-3.036-9.571-2.01 0.2 0.791 0.284 2.044-0.102 3.93 2.449 0.501 4.809 0.459 4.809 0.459 5.223 2.611 3.086 10.089 3.086 10.089-1.78 12.464 3.68 25.047 3.68 25.047 0.356 2.609 0.95 4.035 0.95 4.035 0.919 4.596 2.795 7.438 4.838 9.195 0 0 0.897 0.998 2.152 2.323l0.938 14.721c-1.156-0.548-2.523-1.109-4.952-1.109-2.643 0-4.031 0.666-5.256 1.254-1.104 0.53-2.058 0.988-4.086 0.988-2.027 0-2.981-0.458-4.085-0.988-1.224-0.588-2.612-1.254-5.254-1.254-0.747 0-1.351 0.604-1.351 1.351C24.161 82.095 24.766 82.699 25.512 82.699zM32.433 13.839c-0.485 0-0.878-0.393-0.878-0.878 0-0.485 0.393-0.878 0.878-0.878s0.879 0.393 0.879 0.878C33.312 13.446 32.918 13.839 32.433 13.839zM57.059 81.516c-0.901 0.408-1.842 0.724-3.521 0.724-0.95 0-1.66-0.104-2.266-0.265-0.237-3.137-0.356-9.092 1.163-11.365 0.391 0.357 0.77 0.694 1.125 0.994C53.561 71.604 56.584 79.638 57.059 81.516zM45.325 55.879c-0.015-3.243 3.334-5.072 3.477-5.148 0.422-0.225 0.947-0.065 1.172 0.354 0.225 0.421 0.067 0.944-0.353 1.171-0.026 0.014-2.581 1.424-2.564 3.623 0.011 1.536 1.284 4.023 7.279 7.166l13.682 5.469c0.443 0.178 0.66 0.682 0.482 1.125-0.136 0.34-0.461 0.545-0.805 0.545-0.107 0-0.217-0.02-0.321-0.062L53.65 64.637c-0.026-0.011-0.055-0.022-0.08-0.037C48.113 61.746 45.339 58.811 45.325 55.879z" fill="#ffff00" data-fill-palette-color="accent"></path><path d="M81.578 86.301c-2.646 0-4.034 0.666-5.26 1.254-1.105 0.53-2.061 0.988-4.09 0.988-2.028 0-2.984-0.458-4.09-0.988-1.226-0.588-2.613-1.254-5.259-1.254-2.644 0-4.03 0.666-5.256 1.254-1.104 0.53-2.058 0.988-4.086 0.988s-2.981-0.458-4.088-0.988c-1.225-0.588-2.613-1.254-5.257-1.254-2.643 0-4.031 0.666-5.256 1.254-1.104 0.53-2.058 0.988-4.086 0.988-2.027 0-2.981-0.458-4.085-0.988-1.224-0.588-2.612-1.254-5.254-1.254-0.747 0-1.351 0.605-1.351 1.352s0.605 1.351 1.351 1.351c2.027 0 2.98 0.458 4.084 0.988 1.225 0.587 2.612 1.254 5.255 1.254s4.031-0.667 5.255-1.254c1.105-0.53 2.059-0.988 4.087-0.988 2.029 0 2.983 0.458 4.088 0.988 1.225 0.587 2.613 1.254 5.257 1.254s4.03-0.667 5.255-1.254c1.105-0.53 2.059-0.988 4.087-0.988 2.03 0 2.986 0.458 4.091 0.988 1.225 0.587 2.613 1.254 5.258 1.254s4.032-0.667 5.258-1.254c1.106-0.53 2.062-0.988 4.092-0.988 0.746 0 1.351-0.606 1.351-1.351C82.929 86.905 82.323 86.301 81.578 86.301z" fill="#ffff00" data-fill-palette-color="accent"></path></g></svg><g></g></g></svg></g><g><rect width="130.89100003700582" height="5.187102320769962" y="132.15294585691706" x="260.8466035317461" fill="#ffff00" data-fill-palette-color="accent"></rect><rect width="130.89100003700582" height="5.187102320769962" y="132.15294585691706" x="3.7823964312479745" fill="#ffff00" data-fill-palette-color="accent"></rect><rect width="130.89100003700582" height="5.187102320769962" y="121.77874121537712" x="260.8466035317461" fill="#ffff00" data-fill-palette-color="accent"></rect><rect width="130.89100003700582" height="5.187102320769962" y="121.77874121537712" x="3.7823964312479745" fill="#ffff00" data-fill-palette-color="accent"></rect></g></svg></g></svg><rect width="387.955207137504" height="247.2" fill="none" stroke="none" visibility="hidden"></rect></g></svg></g></svg>